<svg width="17" height="18" viewBox="0 0 17 18" fill="none" xmlns="http://www.w3.org/2000/svg">
<path d="M8.90526 10.3043L5.42325 13.7842C5.80615 14.1651 6.19922 14.5561 6.59094 14.9472C6.93649 15.2927 6.93581 15.5582 6.59094 15.9024C6.17501 16.3187 5.75885 16.7344 5.34247 17.1495C5.03493 17.4556 4.75455 17.4543 4.44905 17.1495L3.23452 15.9349L2.38184 16.7944C2.21484 16.9635 2.01932 17.0544 1.78578 16.9655C1.68765 16.9234 1.599 16.862 1.52509 16.7849C1.09332 16.3606 0.666974 15.9309 0.239276 15.5025C-0.0757278 15.1868 -0.0777636 14.9085 0.235882 14.5948L3.44091 11.3932C4.49318 10.3414 5.54613 9.29068 6.59976 8.24112C6.69074 8.15083 6.70635 8.08837 6.64593 7.96956C5.48028 5.66542 6.04172 2.89964 8.03357 1.26013C9.31735 0.203778 10.8048 -0.185225 12.4463 0.0822568C13.541 0.266772 14.5535 0.78023 15.3492 1.55432C16.1449 2.32841 16.686 3.32642 16.9005 4.41559C17.4009 6.96617 16.0465 9.54186 13.6541 10.5256C12.0967 11.1678 10.5461 11.1108 9.03018 10.3586C8.98266 10.3389 8.93649 10.3192 8.90526 10.3043ZM11.5129 8.1997C12.2337 8.20258 12.9262 7.919 13.4379 7.41133C13.9497 6.90365 14.2388 6.21348 14.2417 5.49264C14.2445 4.7718 13.9609 4.07935 13.4533 3.5676C12.9456 3.05586 12.2554 2.76674 11.5346 2.76386C10.0601 2.73806 8.81905 3.95734 8.80411 5.45428C8.80052 5.8126 8.86789 6.16809 9.00233 6.50025C9.13677 6.83241 9.33562 7.13468 9.58742 7.38964C9.83922 7.64459 10.139 7.84719 10.4695 7.98576C10.7999 8.12432 11.1545 8.19611 11.5129 8.19699V8.1997Z" fill="white" fill-opacity="0.7"/>
</svg>
