<svg width="18" height="15" viewBox="0 0 18 15" fill="none" xmlns="http://www.w3.org/2000/svg">
<g clip-path="url(#clip0_40_2)">
<path d="M5.30645 12.946C5.03009 13.1802 4.78397 13.4256 4.50268 13.6197C4.02309 13.9502 3.4753 14.0888 2.89234 14.0881C2.14834 14.0881 1.40435 14.0881 0.660358 14.0881C0.0907599 14.0881 -0.16802 13.6338 0.115372 13.1373C1.64977 10.4487 3.18511 7.76083 4.72138 5.07364C4.84866 4.85002 5.02305 4.69672 5.29309 4.70656C5.40267 4.70397 5.51038 4.73537 5.60141 4.79643C5.69244 4.8575 5.76234 4.94524 5.80151 5.04762C5.844 5.16232 5.86475 5.28395 5.86268 5.40626C5.86761 6.46669 5.86268 7.52713 5.86268 8.58686V8.77462C6.11865 8.64804 6.35493 8.51724 6.60738 8.40965C6.95898 8.25917 7.33028 8.21838 7.7072 8.21768C10.1262 8.21768 12.5455 8.21768 14.965 8.21768C16.3152 8.21768 17.3932 8.97292 17.8355 10.212C18.4353 11.8898 17.2905 13.7983 15.5318 14.0452C15.3232 14.0734 15.1129 14.0873 14.9024 14.0866C12.5882 14.0866 10.2739 14.0712 7.96035 14.0958C6.88093 14.1035 5.97449 13.7899 5.30645 12.946ZM13.3012 11.1374C13.2829 12.0755 14.0747 12.8954 15.0206 12.9151C15.4881 12.9204 15.9389 12.7416 16.2756 12.4172C16.6123 12.0929 16.8079 11.6491 16.8201 11.1817C16.8468 10.245 16.0515 9.41665 15.1092 9.39907C14.8765 9.39393 14.645 9.43477 14.4281 9.51923C14.2112 9.6037 14.0131 9.73013 13.8452 9.89129C13.6772 10.0524 13.5427 10.2452 13.4494 10.4584C13.356 10.6716 13.3057 10.9012 13.3012 11.1339V11.1374ZM9.38294 11.1522C9.38183 10.8044 9.27758 10.4647 9.08338 10.1762C8.88919 9.88767 8.61378 9.66323 8.292 9.53126C7.97021 9.39929 7.61652 9.36573 7.27566 9.43483C6.9348 9.50393 6.6221 9.67257 6.37711 9.91943C6.13212 10.1663 5.96585 10.4803 5.89935 10.8216C5.83285 11.163 5.8691 11.5165 6.00351 11.8372C6.13792 12.158 6.36445 12.4317 6.65445 12.6237C6.94444 12.8157 7.28487 12.9173 7.63266 12.9158C8.09841 12.9114 8.54357 12.7232 8.87133 12.3923C9.1991 12.0614 9.38296 11.6144 9.38294 11.1486V11.1522Z" fill="white" fill-opacity="0.7"/>
<path d="M16.813 7.45189C16.0001 7.03911 15.152 7.03911 14.299 7.03911C12.1254 7.04614 9.9525 7.03911 7.77889 7.03911H7.04474C7.03918 6.60292 7.16141 6.17465 7.39634 5.80709C7.57158 5.51529 7.81234 5.26827 8.09955 5.0856C8.13996 5.0635 8.17277 5.02975 8.19372 4.98873C8.21467 4.94772 8.22277 4.90134 8.21698 4.85565C8.21066 4.60953 8.21136 4.36341 8.21698 4.11729C8.22472 3.76568 8.46803 3.52097 8.79783 3.52026C9.12764 3.51956 9.37868 3.77131 9.38431 4.13065C9.38431 4.30575 9.38431 4.48225 9.38431 4.67141H9.9089C10.0109 4.26777 10.1163 3.85569 10.219 3.44291C10.4586 2.48373 10.6974 1.52456 10.9356 0.565385C11.0397 0.14768 11.2295 -0.00280762 11.6543 -0.00280762C12.7672 -0.00280762 13.8804 -0.00280762 14.9938 -0.00280762C15.8777 -0.00280762 16.524 0.489439 16.7631 1.33962C16.8043 1.49822 16.824 1.66167 16.8214 1.82553C16.8256 3.64121 16.8256 5.45737 16.8214 7.27399C16.8235 7.3204 16.8186 7.36892 16.813 7.45189ZM11.1219 4.67634C11.1564 4.68286 11.1911 4.68755 11.226 4.6904C12.1163 4.6904 13.0065 4.6904 13.8982 4.6904C13.975 4.69178 14.0513 4.67752 14.1224 4.64849C14.1935 4.61945 14.2579 4.57626 14.3118 4.52152C14.3657 4.46679 14.4078 4.40167 14.4357 4.33012C14.4637 4.25857 14.4767 4.18209 14.4741 4.10533C14.4826 3.32665 14.4826 2.54773 14.4741 1.76857C14.4741 1.41697 14.2196 1.1828 13.8651 1.17577C13.6254 1.17085 13.3856 1.17577 13.1451 1.17577H11.9974C11.7042 2.34661 11.4138 3.50761 11.1219 4.67634Z" fill="white" fill-opacity="0.7"/>
<path d="M15.6436 11.1522C15.6436 11.3068 15.5822 11.4551 15.4728 11.5644C15.3635 11.6737 15.2152 11.7351 15.0606 11.7351C14.906 11.7351 14.7577 11.6737 14.6484 11.5644C14.5391 11.4551 14.4777 11.3068 14.4777 11.1522C14.4777 10.9976 14.5391 10.8493 14.6484 10.74C14.7577 10.6306 14.906 10.5692 15.0606 10.5692C15.2152 10.5692 15.3635 10.6306 15.4728 10.74C15.5822 10.8493 15.6436 10.9976 15.6436 11.1522Z" fill="white" fill-opacity="0.7"/>
<path d="M8.21341 11.1472C8.2142 11.2629 8.1808 11.3763 8.11739 11.4731C8.05398 11.5699 7.96339 11.6458 7.85699 11.6912C7.75059 11.7367 7.63313 11.7497 7.51936 11.7287C7.40559 11.7076 7.30057 11.6534 7.2175 11.5729C7.13443 11.4923 7.07701 11.389 7.05245 11.2759C7.02788 11.1629 7.03727 11.0451 7.07944 10.9373C7.1216 10.8296 7.19466 10.7367 7.28944 10.6703C7.38421 10.6039 7.49649 10.5671 7.61216 10.5643C7.76882 10.5631 7.91966 10.6236 8.03214 10.7327C8.14462 10.8417 8.20972 10.9906 8.21341 11.1472Z" fill="white" fill-opacity="0.7"/>
</g>
<defs>
<clipPath id="clip0_40_2">
<rect width="18" height="14.0923" fill="white"/>
</clipPath>
</defs>
</svg>
