<svg width="8" height="12" viewBox="0 0 8 12" fill="none" xmlns="http://www.w3.org/2000/svg">
<path d="M7.99852 4.01128C7.99107 4.45309 7.90809 4.94543 7.66165 5.40871C6.58312 7.43591 5.50476 9.46207 4.42657 11.4872C4.37731 11.5811 4.31321 11.6682 4.23627 11.7457C4.09615 11.8843 3.8984 11.8829 3.75779 11.7457C3.68515 11.6745 3.62469 11.594 3.57842 11.5069C2.49261 9.44657 1.40779 7.38612 0.323965 5.32553C-0.00297163 4.70619 -0.0670672 4.06136 0.0606268 3.39686C0.342348 1.92922 1.55917 0.764771 3.19087 0.483944C4.80071 0.206694 6.14919 0.662815 7.17373 1.82548C7.72326 2.44705 7.96871 3.13839 7.99852 4.01128ZM1.74251 3.97819C1.70773 5.07332 2.7104 6.00077 3.96498 6.0352C5.18975 6.0674 6.22223 5.16276 6.25453 4.02961C6.28583 2.93134 5.2926 2.00122 4.03206 1.97752C2.80431 1.95247 1.77381 2.82313 1.74301 3.97819H1.74251Z" fill="white"/>
</svg>
