<svg width="62" height="78" viewBox="0 0 62 78" fill="none" xmlns="http://www.w3.org/2000/svg">
<path d="M37.2257 4.8493L20.4455 43.119L10.4857 14.5479L0 18.3489L19.4016 72.6083L50.8564 0L37.2257 4.8493ZM4.98048 20.5767L8.25671 18.8725L20.052 53.2111L39.7104 7.99435L44.4286 6.42237L20.0531 62.3839L4.98048 20.5767Z" fill="#CBB47A"/>
<path d="M13.6356 13.6302L21.0435 34.4032L32.8664 6.42188L13.6356 13.6302ZM18.2226 15.9893L26.0868 12.8431L21.2364 24.1148L18.2226 15.9893Z" fill="#CBB47A"/>
<path d="M20.838 77.8499L25.6873 76.1467L56.225 5.50391L51.3757 7.6006L20.838 77.8499Z" fill="#CBB47A"/>
<path d="M56.5299 12.8433L61.4674 11.4014L36.5198 68.4796L31.7157 70.2478L56.5299 12.8433Z" fill="#CBB47A"/>
</svg>
