<svg width="58" height="46" viewBox="0 0 58 46" fill="none" xmlns="http://www.w3.org/2000/svg">
<path d="M12.8213 12.7588C10.9847 15.2412 10.0664 18.7529 10.0664 23.2939C10.0664 27.835 10.9847 31.3467 12.8213 33.8291C14.6579 36.3115 16.8376 37.5527 19.3604 37.5527C21.8831 37.5527 24.0628 36.3115 25.8994 33.8291C27.736 31.3467 28.6543 27.835 28.6543 23.2939C28.6543 18.7529 27.736 15.2412 25.8994 12.7588C24.0628 10.2764 21.8831 9.03516 19.3604 9.03516C16.8376 9.03516 14.6579 10.2764 12.8213 12.7588ZM32.5293 6.91602C36.1419 11.0534 37.9482 16.5127 37.9482 23.2939C37.9482 30.0752 36.1419 35.5446 32.5293 39.7021C28.9167 43.8597 24.527 45.9385 19.3604 45.9385C14.1937 45.9385 9.80404 43.8597 6.19141 39.7021C2.57878 35.5446 0.772461 30.0752 0.772461 23.2939C0.772461 16.5127 2.57878 11.0534 6.19141 6.91602C9.80404 2.75846 14.1937 0.679688 19.3604 0.679688C24.527 0.679688 28.9167 2.75846 32.5293 6.91602ZM44.3672 32.998C44.1003 33.265 43.9668 33.6003 43.9668 34.0039C43.9668 34.401 44.1003 34.7331 44.3672 35C44.6341 35.2669 44.9661 35.4004 45.3633 35.4004C45.7669 35.4004 46.1022 35.2669 46.3691 35C46.6361 34.7331 46.7695 34.401 46.7695 34.0039C46.7695 33.6003 46.6361 33.265 46.3691 32.998C46.1022 32.7311 45.7669 32.5977 45.3633 32.5977C44.9661 32.5977 44.6341 32.7311 44.3672 32.998ZM43.8691 45L52.668 30.9961H55.168L46.3691 45H43.8691ZM47.7656 31.6992C48.4362 32.3633 48.7715 33.1315 48.7715 34.0039C48.7715 34.8698 48.4362 35.638 47.7656 36.3086C47.1016 36.9727 46.3008 37.3047 45.3633 37.3047C44.4323 37.3047 43.6315 36.9727 42.9609 36.3086C42.2969 35.638 41.9648 34.8698 41.9648 34.0039C41.9648 33.1315 42.2969 32.3633 42.9609 31.6992C43.6315 31.0352 44.4323 30.7031 45.3633 30.7031C46.3008 30.7031 47.1016 31.0352 47.7656 31.6992ZM54.6699 42.998C54.9368 42.7311 55.0703 42.3991 55.0703 42.002C55.0703 41.5983 54.9368 41.263 54.6699 40.9961C54.403 40.7292 54.0677 40.5957 53.6641 40.5957C53.2669 40.5957 52.9349 40.7292 52.668 40.9961C52.401 41.263 52.2676 41.5983 52.2676 42.002C52.2676 42.3991 52.401 42.7311 52.668 42.998C52.9349 43.265 53.2669 43.3984 53.6641 43.3984C54.0677 43.3984 54.403 43.265 54.6699 42.998ZM51.2617 44.3066C50.5977 43.6361 50.2656 42.8678 50.2656 42.002C50.2656 41.1361 50.5977 40.3711 51.2617 39.707C51.9323 39.0365 52.7331 38.7012 53.6641 38.7012C54.6016 38.7012 55.4023 39.0365 56.0664 39.707C56.737 40.3711 57.0723 41.1361 57.0723 42.002C57.0723 42.8678 56.737 43.6361 56.0664 44.3066C55.4023 44.9707 54.6016 45.3027 53.6641 45.3027C52.7331 45.3027 51.9323 44.9707 51.2617 44.3066Z" fill="#212225"/>
</svg>
