<svg width="41" height="40" viewBox="0 0 41 40" fill="none" xmlns="http://www.w3.org/2000/svg">
<g clip-path="url(#clip0_1_857)">
<path d="M32.794 11.7824C34.4298 11.7562 36.0244 12.296 37.3079 13.3104C38.3964 14.1621 39.2087 15.3167 39.6427 16.6289C40.0767 17.9411 40.1129 19.3524 39.7469 20.6851C38.9813 23.3913 36.5908 25.4537 33.8252 25.7818C33.4508 25.8258 33.0742 25.8488 32.6972 25.8505C30.5754 25.8505 28.4536 25.8505 26.3318 25.8505H25.8631V25.4084C25.8631 23.6647 25.8631 21.9195 25.8631 20.1758C25.8631 17.9712 24.3647 16.479 22.1585 16.4759C20.7008 16.4759 19.243 16.4759 17.7837 16.4759C15.6619 16.4759 14.151 17.9977 14.1463 20.1242C14.1463 22.0116 14.1463 23.8991 14.1463 25.8177C14.0454 25.8339 13.9437 25.8443 13.8417 25.849C12.3323 25.849 10.8215 25.8631 9.31058 25.849C8.04545 25.83 6.79701 25.5572 5.63931 25.0466C4.48161 24.5361 3.43824 23.7982 2.57106 22.8768C1.70389 21.9555 1.03059 20.8693 0.591084 19.6828C0.151582 18.4963 -0.0451659 17.2337 0.012508 15.9697C0.237499 11.473 3.89048 7.62939 8.37781 7.17159C8.67312 7.12338 8.97249 7.10454 9.27152 7.11535C9.66682 7.15597 9.809 7.0091 9.93868 6.63412C11.1371 3.14519 13.5135 0.885905 17.1509 0.17187C21.2132 -0.628098 25.2084 1.42182 27.1083 5.13261C27.3958 5.69509 27.5771 6.31538 27.8255 6.89817C27.8571 6.97436 27.9034 7.04355 27.9619 7.10174C28.0204 7.15993 28.0898 7.20597 28.1661 7.23721C30.5582 7.81063 32.0956 9.26839 32.7409 11.6449C32.7563 11.6915 32.774 11.7374 32.794 11.7824Z" fill="#8C7C53" fill-opacity="0.5"/>
<path d="M23.5194 30.5394C24.3006 30.5394 25.0131 30.5394 25.7286 30.5394C26.2583 30.5394 26.6739 30.7222 26.9114 31.2066C27.1489 31.691 27.0177 32.1613 26.6724 32.5769C24.7839 34.8684 22.8959 37.1569 21.0085 39.4422C20.3914 40.1891 19.6148 40.1891 19.0024 39.4422C17.1128 37.1506 15.2244 34.8622 13.3369 32.5769C12.9916 32.1613 12.8448 31.7175 13.0901 31.2097C13.3354 30.7019 13.7651 30.5254 14.3072 30.5348C15.0197 30.5457 15.7322 30.5348 16.4853 30.5348V30.0473C16.4853 26.7672 16.4853 23.4861 16.4853 20.2039C16.4853 19.2664 16.929 18.818 17.868 18.818H22.1241C23.0694 18.818 23.5162 19.2602 23.5162 20.1961C23.5162 23.4772 23.5162 26.7583 23.5162 30.0395L23.5194 30.5394Z" fill="#8C7C53" fill-opacity="0.5"/>
</g>
<defs>
<clipPath id="clip0_1_857">
<rect width="40.0016" height="40" fill="white"/>
</clipPath>
</defs>
</svg>
