<svg width="39" height="39" viewBox="0 0 39 39" fill="none" xmlns="http://www.w3.org/2000/svg">
<g clip-path="url(#clip0_1_848)">
<path d="M33.2191 19.9254C33.2798 21.1174 32.6699 21.947 31.678 22.4257C30.6139 22.9373 30.0302 23.6866 29.7515 24.831C29.4072 26.2525 28.3989 26.9788 26.9331 26.9624C25.8887 26.9525 25.1411 27.3526 24.4738 28.1478C23.29 29.5414 22.4096 29.5676 21.0307 29.0528C20.9914 29.041 20.953 29.0263 20.9159 29.0085C19.9568 28.4527 19.037 28.556 18.0336 28.9954C16.558 29.6512 15.5595 29.3971 14.5135 28.1199C13.8741 27.3378 13.1412 26.9493 12.123 26.9624C10.6081 26.9821 9.59156 26.2115 9.24562 24.7375C8.99476 23.6669 8.44715 22.957 7.44211 22.4815C6.11407 21.8503 5.57466 20.737 5.89274 19.3057C6.13375 18.2187 5.92881 17.3382 5.23692 16.4512C4.25319 15.1871 4.2663 14.1362 5.23692 12.859C5.89274 11.9867 6.05669 11.1358 5.85667 10.0717C5.5845 8.59614 5.88454 7.70586 7.24864 6.97626C8.33567 6.39586 8.97181 5.6433 9.26529 4.44151C9.5932 3.08888 10.6196 2.36912 12.0181 2.39044C12.5075 2.41941 12.9962 2.32286 13.4378 2.10995C13.8794 1.89704 14.2593 1.57483 14.5414 1.17389C15.4776 -0.0426569 16.74 -0.32302 18.1156 0.354114C19.078 0.832863 19.947 0.808271 20.9225 0.365593C22.3817 -0.290228 23.4294 -0.0459356 24.4541 1.20504C24.7406 1.58375 25.113 1.889 25.5406 2.09566C25.9681 2.30231 26.4387 2.40447 26.9134 2.39372C28.5103 2.42651 29.2776 3.06102 29.7548 4.56284C29.8039 4.7186 29.8499 4.87599 29.8843 5.03503C29.9582 5.39117 30.1156 5.72466 30.3437 6.008C30.5717 6.29135 30.8638 6.51645 31.1959 6.66474C31.4899 6.80723 31.7727 6.97165 32.0419 7.15661C33.0093 7.83374 33.3093 8.78633 33.1437 9.91926C33.1191 10.0832 33.0863 10.2472 33.0486 10.3996C32.9434 10.7838 32.9363 11.1882 33.028 11.5757C33.1196 11.9633 33.3071 12.3217 33.5733 12.618C33.6257 12.6803 33.6798 12.7426 33.7274 12.8098C34.6816 14.1591 34.7423 15.1986 33.7274 16.5185C33.0814 17.3628 32.8486 18.2121 33.1339 19.2254C33.1812 19.456 33.2097 19.6901 33.2191 19.9254ZM19.5125 4.18574C16.7332 4.18095 14.0656 5.27896 12.095 7.23882C10.1243 9.19867 9.01174 11.8603 9.00132 14.6395C8.98821 20.4288 13.674 25.1638 19.4338 25.1638C20.8118 25.169 22.1773 24.9027 23.4523 24.3801C24.7274 23.8576 25.887 23.089 26.8651 22.1183C27.8431 21.1475 28.6204 19.9937 29.1525 18.7226C29.6846 17.4515 29.9611 16.088 29.9663 14.71C29.9714 13.332 29.7051 11.9665 29.1826 10.6915C28.66 9.41642 27.8914 8.25677 26.9207 7.27874C25.95 6.3007 24.7961 5.52345 23.525 4.99135C22.2539 4.45925 20.8905 4.18272 19.5125 4.17755V4.18574Z" fill="#8C7C53" fill-opacity="0.5"/>
<path d="M23.8573 30.3563C24.4377 29.8366 25.0263 29.3873 25.5117 28.8463C25.9133 28.397 26.3544 28.2396 26.9299 28.1904C27.5395 28.1533 28.1412 28.0336 28.7186 27.8347C30.045 27.3526 30.6861 26.2574 31.0583 24.9753C31.1878 24.5359 31.2517 24.0653 31.7616 23.8489C31.9518 23.7686 32.0649 23.7522 32.2207 23.9096C34.3816 26.0738 36.5453 28.2347 38.7117 30.3924C38.9248 30.6039 39.0724 30.8432 38.9658 31.1597C38.8592 31.4761 38.6084 31.6089 38.2838 31.6614C36.7508 31.9122 35.2194 32.1844 33.6848 32.4238C33.3946 32.4697 33.311 32.6008 33.27 32.8615C33.0257 34.3961 32.7781 35.9308 32.4994 37.4523C32.4568 37.6818 32.2502 37.99 32.0518 38.054C31.923 38.0747 31.7912 38.066 31.6663 38.0285C31.5414 37.991 31.4265 37.9257 31.3304 37.8376C28.8301 35.3569 26.3511 32.855 23.8672 30.3579C23.8492 30.353 23.8393 30.3251 23.8573 30.3563Z" fill="#8C7C53" fill-opacity="0.5"/>
<path d="M15.112 30.4104C14.6201 30.9023 14.1069 31.4236 13.5855 31.9434C11.6607 33.8638 9.73422 35.781 7.80611 37.6949C7.67941 37.8371 7.52556 37.9525 7.3536 38.0343C6.91584 38.1983 6.56989 37.9736 6.48136 37.4588C6.30265 36.4243 6.13705 35.3864 5.96654 34.3437C5.87964 33.819 5.78455 33.2944 5.71077 32.7681C5.70697 32.6673 5.66446 32.5719 5.59209 32.5016C5.51971 32.4314 5.42304 32.3917 5.32219 32.391C3.79905 32.1483 2.27919 31.8991 0.759324 31.6417C0.431414 31.5892 0.141213 31.4974 0.0313628 31.14C-0.0784871 30.7826 0.110061 30.5727 0.33304 30.3514C2.43494 28.2626 4.53576 26.1722 6.63547 24.0801C6.9929 23.7243 7.46345 23.8145 7.67167 24.2965C7.77216 24.5497 7.85542 24.8093 7.92088 25.0737C8.46685 27.0788 9.91621 28.2396 11.9935 28.2708C12.2828 28.2638 12.5699 28.3231 12.8328 28.4442C13.0957 28.5652 13.3273 28.7448 13.5101 28.9692C13.9725 29.4906 14.5529 29.9185 15.112 30.4104Z" fill="#8C7C53" fill-opacity="0.5"/>
<path d="M19.4847 5.49743C20.6965 5.4961 21.8966 5.73468 23.0158 6.1994C24.135 6.66413 25.1511 7.3458 26.0055 8.20512C26.8599 9.06444 27.5358 10.0844 27.9942 11.2062C28.4525 12.328 28.6843 13.5294 28.676 14.7412C28.6613 19.7451 24.5214 23.8702 19.5241 23.8588C18.3183 23.8613 17.1239 23.6264 16.009 23.1674C14.894 22.7084 13.8804 22.0342 13.026 21.1835C12.1716 20.3327 11.4931 19.322 11.0293 18.2091C10.5655 17.0961 10.3255 15.9027 10.3229 14.6969C10.3203 13.4912 10.5552 12.2968 11.0143 11.1819C11.4733 10.0669 12.1474 9.0533 12.9982 8.1989C14.7164 6.47334 17.0496 5.50101 19.4847 5.49579V5.49743ZM16.2056 18.8303C16.1843 19.4861 16.6565 19.791 17.2057 19.5238C17.8616 19.1959 18.5174 18.868 19.1732 18.5122C19.2673 18.4492 19.378 18.4156 19.4913 18.4156C19.6045 18.4156 19.7152 18.4492 19.8093 18.5122C20.4143 18.8549 21.039 19.168 21.6522 19.4959C21.944 19.6599 22.2326 19.75 22.531 19.5254C22.8294 19.3008 22.8015 18.986 22.7458 18.6679C22.6228 17.9695 22.4851 17.2727 22.3933 16.571C22.3807 16.3788 22.445 16.1895 22.572 16.0447C23.0638 15.5298 23.5787 15.0445 24.0902 14.551C24.3181 14.3313 24.4935 14.092 24.3739 13.7575C24.2542 13.423 23.9689 13.346 23.6574 13.3033C22.9819 13.2115 22.308 13.105 21.6309 13.023C21.5044 13.0187 21.3821 12.9767 21.2796 12.9026C21.1771 12.8284 21.099 12.7253 21.0554 12.6065C20.775 11.9704 20.4504 11.3539 20.152 10.726C20.0208 10.4489 19.8454 10.2341 19.5126 10.2341C19.1798 10.2341 18.9748 10.439 18.8354 10.726C18.5272 11.3637 18.1977 11.9917 17.9009 12.636C17.8621 12.7424 17.7926 12.8348 17.7013 12.9016C17.6099 12.9684 17.5008 13.0067 17.3877 13.0115C16.6844 13.0951 15.9761 13.1755 15.2842 13.3214C15.0156 13.3845 14.7794 13.5437 14.6202 13.769C14.4447 14.051 14.6284 14.3346 14.8645 14.5609C15.3891 15.0527 15.9138 15.5577 16.4122 16.0824C16.5335 16.229 16.5923 16.4174 16.5761 16.607C16.4745 17.3711 16.3286 18.1351 16.2154 18.8303H16.2056Z" fill="#8C7C53" fill-opacity="0.5"/>
<path d="M17.7353 17.794C17.8205 17.2645 17.8665 16.8185 17.9698 16.3873C18.0173 16.2165 18.014 16.0355 17.9601 15.8665C17.9062 15.6976 17.8041 15.5481 17.6664 15.4364C17.3385 15.1298 17.0483 14.792 16.7106 14.4346C17.2024 14.3559 17.6697 14.2706 18.1485 14.2083C18.298 14.1955 18.441 14.1413 18.5614 14.0519C18.6819 13.9624 18.7751 13.8411 18.8305 13.7017C19.0273 13.2836 19.2388 12.8721 19.4863 12.3655C19.6937 12.7301 19.8814 13.1055 20.0487 13.4902C20.2405 14.0083 20.5996 14.2247 21.1292 14.2641C21.5079 14.2903 21.8817 14.369 22.2768 14.428C21.9407 14.7855 21.6407 15.1298 21.3112 15.4446C21.1741 15.5566 21.0729 15.7065 21.0202 15.8755C20.9674 16.0446 20.9654 16.2253 21.0144 16.3955C21.1177 16.8267 21.162 17.2727 21.2456 17.7908C20.7537 17.5333 20.3274 17.3202 19.911 17.0939C19.7825 17.0158 19.6351 16.9744 19.4847 16.9744C19.3343 16.9744 19.1869 17.0158 19.0584 17.0939C18.6518 17.3235 18.2304 17.535 17.7353 17.794Z" fill="#8C7C53" fill-opacity="0.5"/>
</g>
<defs>
<clipPath id="clip0_1_848">
<rect width="39" height="38.0851" fill="white" transform="translate(0.000244141)"/>
</clipPath>
</defs>
</svg>
