<svg width="10" height="15" viewBox="0 0 10 15" fill="none" xmlns="http://www.w3.org/2000/svg">
<path d="M9.99833 4.50766C9.98902 5.05992 9.88529 5.67535 9.57724 6.25444C8.22908 8.78845 6.88113 11.3211 5.53339 13.8525C5.47182 13.97 5.3917 14.0788 5.29552 14.1756C5.12037 14.3489 4.87318 14.3472 4.69742 14.1756C4.60662 14.0867 4.53105 13.9861 4.47321 13.8771C3.11594 11.3018 1.75992 8.72622 0.405139 6.15048C-0.00353143 5.3763 -0.0836509 4.57026 0.0759666 3.73963C0.428119 1.90509 1.94914 0.449525 3.98877 0.0984908C6.00106 -0.248072 7.68667 0.322079 8.96734 1.77541C9.65425 2.55238 9.96107 3.41655 9.99833 4.50766ZM2.17832 4.46629C2.13484 5.83522 3.38818 6.99452 4.95641 7.03756C6.48737 7.07781 7.77797 5.94701 7.81834 4.53058C7.85747 3.15774 6.61593 1.99508 5.04025 1.96546C3.50557 1.93415 2.21745 3.02247 2.17894 4.46629H2.17832Z" fill="#497BDF"/>
</svg>
