<svg width="52" height="51" viewBox="0 0 52 51" fill="none" xmlns="http://www.w3.org/2000/svg">
<g clip-path="url(#clip0_1_726)">
<path d="M42.1315 48.6646C40.8395 48.379 39.8006 48.8671 38.863 49.7054C38.4983 50.0054 38.117 50.2846 37.7209 50.5418C36.8886 51.1351 36.273 51.1493 35.4528 50.5519C34.6853 50.0011 33.932 49.4321 33.1544 48.8995C32.9493 48.7623 32.7103 48.6845 32.4638 48.6747C31.5202 48.6504 30.5745 48.6747 29.6288 48.6625C28.6162 48.6504 28.1262 48.2919 27.8062 47.3179C27.5186 46.4552 27.2615 45.5824 26.9455 44.7319C26.8332 44.4435 26.6467 44.1899 26.4048 43.9968C25.6758 43.4237 24.9083 42.9012 24.1631 42.3484C23.4179 41.7955 23.2235 41.19 23.5009 40.3112C23.7945 39.3796 24.1084 38.4582 24.396 37.5226C24.4587 37.3022 24.4587 37.0687 24.396 36.8483C24.1185 35.9309 23.8047 35.0257 23.511 34.1084C23.2174 33.191 23.4158 32.5774 24.2097 31.9942C24.8881 31.494 25.5563 30.9817 26.2611 30.5179C26.6564 30.2615 26.9389 29.8639 27.0508 29.4062C27.2878 28.582 27.5693 27.7699 27.8447 26.9579C28.1343 26.0972 28.6385 25.7307 29.5356 25.7226C30.4813 25.7226 31.427 25.7428 32.3707 25.7084C32.6808 25.6904 32.9806 25.5905 33.2394 25.4188C33.9968 24.9126 34.7177 24.3577 35.467 23.8251C36.2892 23.2318 36.9048 23.2338 37.7331 23.8251C38.4864 24.3678 39.2235 24.9308 39.991 25.4452C40.2237 25.5971 40.493 25.6838 40.7707 25.6963C41.7305 25.7266 42.6924 25.6963 43.6544 25.7104C44.517 25.7104 45.0375 26.0912 45.319 26.9255C45.6227 27.8185 45.8819 28.7258 46.21 29.6087C46.3292 29.9122 46.5253 30.1795 46.779 30.3843C47.4352 30.9128 48.1338 31.3968 48.8142 31.8828C49.8126 32.6119 49.9766 33.1262 49.5898 34.3129C49.3164 35.1452 49.0329 35.9755 48.7798 36.8139C48.715 37.0519 48.715 37.3029 48.7798 37.5409C49.0512 38.4602 49.365 39.3634 49.6546 40.2828C49.9442 41.2022 49.7437 41.7976 48.9803 42.3585C48.2168 42.9194 47.4676 43.4318 46.7406 44.0069C46.5003 44.2026 46.3158 44.4583 46.2059 44.7481C45.892 45.6006 45.6409 46.4755 45.3534 47.3402C45.0456 48.2737 44.5434 48.6362 43.5551 48.6544C43.0772 48.6706 42.6054 48.6646 42.1315 48.6646ZM33.5493 42.8992L43.1825 33.27L41.0015 31.1032L31.3723 40.7324L33.5493 42.8992ZM39.9039 39.5842C39.6934 39.5799 39.4841 39.6175 39.2883 39.6948C39.0924 39.7722 38.9139 39.8877 38.7632 40.0347C38.6124 40.1817 38.4924 40.3572 38.4101 40.5511C38.3278 40.7449 38.2849 40.9531 38.2839 41.1637C38.2807 41.3785 38.3202 41.5918 38.4002 41.7911C38.4801 41.9905 38.5989 42.172 38.7497 42.325C38.9005 42.478 39.0801 42.5995 39.2783 42.6825C39.4765 42.7654 39.6891 42.8081 39.9039 42.8081C40.3313 42.8008 40.7392 42.6278 41.0414 42.3255C41.3437 42.0233 41.5167 41.6154 41.524 41.188C41.5197 40.7612 41.3472 40.3532 41.0438 40.0529C40.7404 39.7526 40.3308 39.5841 39.9039 39.5842ZM31.6822 33.1667C31.6773 33.3773 31.7142 33.5868 31.7907 33.783C31.8672 33.9792 31.9819 34.1584 32.1279 34.3101C32.274 34.4619 32.4487 34.5832 32.6419 34.6671C32.8351 34.751 33.043 34.7958 33.2536 34.7989C33.4648 34.8017 33.6744 34.7629 33.8706 34.6847C34.0667 34.6065 34.2455 34.4904 34.3968 34.343C34.5481 34.1957 34.6689 34.02 34.7522 33.826C34.8356 33.632 34.88 33.4234 34.8828 33.2123C34.8856 33.0011 34.8467 32.7915 34.7685 32.5954C34.6903 32.3992 34.5742 32.2204 34.4269 32.0691C34.2795 31.9178 34.1039 31.797 33.9098 31.7137C33.7158 31.6303 33.5073 31.5859 33.2961 31.5831C33.0848 31.5774 32.8745 31.6142 32.6777 31.6913C32.4808 31.7684 32.3014 31.8842 32.1502 32.0319C31.9989 32.1796 31.8788 32.3561 31.7971 32.551C31.7153 32.746 31.6734 32.9553 31.6741 33.1667H31.6822Z" fill="#487BDE" fill-opacity="0.2"/>
<path d="M4.68604 9.43495C5.49606 7.67314 6.7921 6.74566 8.57214 6.40747C16.1202 4.97103 23.6663 3.52918 31.2103 2.08194C34.7016 1.41569 38.1907 0.741344 41.686 0.0892728C42.317 -0.0389347 42.9672 -0.0395276 43.5984 0.0875362C44.2296 0.2146 44.829 0.46675 45.3612 0.829112C45.8935 1.19148 46.3477 1.65672 46.6973 2.19742C47.0469 2.73813 47.2847 3.34334 47.3967 3.97739C48.528 9.81633 49.6465 15.6573 50.7522 21.5003C51.06 23.1062 51.3597 24.712 51.6736 26.3159C52.028 28.1182 51.3273 29.5357 50.0839 30.8075C49.3245 30.2567 48.5854 29.7301 47.8564 29.1874C47.7375 29.0718 47.6533 28.9252 47.6134 28.7642C47.338 27.9542 47.1395 27.1036 46.7871 26.3341C46.5063 25.7682 46.1379 25.2502 45.6956 24.7991C45.5913 24.7076 45.5082 24.5944 45.4523 24.4674C45.3963 24.3404 45.3688 24.2028 45.3716 24.064C45.3797 20.909 45.3797 17.7539 45.3716 14.5989C45.3716 11.4884 43.3162 9.43495 40.2037 9.43495H4.68604Z" fill="#487BDE" fill-opacity="0.2"/>
<path d="M43.7515 19.1287H0.0849971C0.0667715 19.1105 0.0262684 19.0862 0.0262684 19.0598C0.0262684 17.373 -0.0344835 15.6841 0.0262684 13.9972C0.0930956 12.3954 1.49444 11.1175 3.09829 11.0527C3.26638 11.0527 3.43648 11.0527 3.60456 11.0527H40.157C42.4575 11.0527 43.7515 12.3528 43.7515 14.6655C43.7515 15.9817 43.7515 17.298 43.7515 18.6143V19.1287Z" fill="#487BDE" fill-opacity="0.2"/>
<path d="M22.9136 43.4559H3.57019C1.34262 43.4559 0.0101318 42.1335 0.0101318 39.9059C0.0101318 35.8922 0.0101318 31.8772 0.0101318 27.8608V27.2837H26.0282C25.8459 27.8527 25.6799 28.4177 25.4774 28.9665C25.3961 29.1126 25.2772 29.2342 25.1331 29.3189C24.4709 29.811 23.7965 30.2889 23.1323 30.781C22.5587 31.1789 22.1309 31.7533 21.9137 32.4167C21.6966 33.0802 21.7021 33.7964 21.9294 34.4565C22.1522 35.1794 22.3709 35.9084 22.6362 36.6152C22.7858 36.9903 22.7821 37.4092 22.6261 37.7816C22.4235 38.3324 22.2818 38.9096 22.0732 39.4604C21.5183 40.9225 21.6783 42.2287 22.9136 43.4559ZM4.89054 35.3171H14.544V32.1418H4.89459L4.89054 35.3171Z" fill="#487BDE" fill-opacity="0.2"/>
</g>
<defs>
<clipPath id="clip0_1_726">
<rect width="51.7586" height="50.9891" fill="white"/>
</clipPath>
</defs>
</svg>
