<svg width="49" height="57" viewBox="0 0 49 57" fill="none" xmlns="http://www.w3.org/2000/svg">
<g clip-path="url(#clip0_1_723)">
<path d="M0.00256348 20.5225C0.00256348 18.365 0.00256348 16.2066 0.00256348 14.0475C0.00256348 12.4096 0.742569 11.6128 2.40018 11.5808C5.67347 11.5388 8.86043 11.0356 11.9142 9.82203C16.3261 8.12489 20.0681 5.04166 22.5777 1.0357C23.4533 -0.345638 24.9358 -0.360442 25.8065 1.00117C29.4424 6.67454 34.6866 9.94043 41.248 11.1146C42.7971 11.3933 44.3881 11.45 45.9643 11.5413C47.649 11.6424 48.3989 12.3701 48.3964 14.0401C48.3964 18.1323 48.4655 22.222 48.3668 26.3118C48.1794 34.2052 45.2144 41.0034 39.874 46.7853C36.1 50.8652 31.6106 53.9633 26.5712 56.2845C25.8593 56.639 25.0765 56.8282 24.2812 56.8381C23.4859 56.8479 22.6987 56.6781 21.9782 56.3412C15.6315 53.4305 10.1752 49.3778 6.00154 43.7217C2.18712 38.6173 0.0948505 32.432 0.0272318 26.0602C-0.00730175 24.2102 0.0272318 22.3602 0.0272318 20.5102L0.00256348 20.5225ZM16.9018 34.7824C16.628 37.1701 18.4386 39.2816 22.1262 40.8628V44.1755H26.3196V40.9688C27.2791 40.4582 28.2091 40.0858 28.9984 39.5184C32.3753 37.0937 32.4148 32.6117 29.1218 30.0784C27.7195 29.0127 26.0039 28.4411 24.2427 28.4529C23.3533 28.4705 22.4841 28.1871 21.776 27.6488C20.814 26.8865 20.8214 25.8234 21.776 25.0365C23.367 23.7119 26.8524 23.9907 27.4494 26.2945H31.6008C31.29 22.967 29.2648 21.228 26.2851 20.2512V16.8965H22.1016C22.1016 17.9053 22.0892 18.8846 22.1016 19.8565C22.1016 20.1772 21.9906 20.3005 21.697 20.4214C20.9669 20.6875 20.2647 21.0246 19.6004 21.4278C16.1914 23.7144 15.8855 28.0878 18.9344 30.7395C20.3162 31.9353 22.0798 32.5984 23.9072 32.6092C24.8495 32.6364 25.7473 32.777 26.5293 33.3493C27.622 34.1534 27.6196 35.2807 26.5441 36.1119C24.9901 37.3132 21.586 37.0986 20.9496 34.7602L16.9018 34.7824Z" fill="#487BDE" fill-opacity="0.2"/>
</g>
<defs>
<clipPath id="clip0_1_723">
<rect width="48.4185" height="56.8497" fill="white"/>
</clipPath>
</defs>
</svg>
