<svg width="59" height="59" viewBox="0 0 52 52" fill="none" xmlns="http://www.w3.org/2000/svg">
<path d="M42.1314 49.6646C40.8394 49.379 39.8005 49.8671 38.8629 50.7054C38.4982 51.0054 38.1169 51.2846 37.7208 51.5418C36.8885 52.1351 36.2729 52.1493 35.4527 51.5519C34.6852 51.0011 33.9319 50.4321 33.1543 49.8995C32.9492 49.7623 32.7102 49.6845 32.4637 49.6747C31.52 49.6504 30.5743 49.6747 29.6286 49.6625C28.6161 49.6504 28.126 49.2919 27.8061 48.3179C27.5185 47.4552 27.2613 46.5824 26.9454 45.7319C26.8331 45.4435 26.6466 45.1899 26.4047 44.9968C25.6757 44.4237 24.9082 43.9012 24.163 43.3484C23.4178 42.7955 23.2233 42.19 23.5008 41.3112C23.7944 40.3796 24.1083 39.4582 24.3959 38.5226C24.4586 38.3022 24.4586 38.0687 24.3959 37.8483C24.1184 36.9309 23.8045 36.0257 23.5109 35.1084C23.2173 34.191 23.4157 33.5774 24.2096 32.9942C24.8879 32.494 25.5562 31.9817 26.2609 31.5179C26.6563 31.2615 26.9387 30.8639 27.0507 30.4062C27.2877 29.582 27.5691 28.7699 27.8445 27.9579C28.1341 27.0972 28.6384 26.7307 29.5355 26.7226C30.4812 26.7226 31.4269 26.7428 32.3706 26.7084C32.6807 26.6904 32.9804 26.5905 33.2393 26.4188C33.9967 25.9126 34.7176 25.3577 35.4669 24.8251C36.2891 24.2318 36.9047 24.2338 37.7329 24.8251C38.4863 25.3678 39.2234 25.9308 39.9909 26.4452C40.2236 26.5971 40.4929 26.6838 40.7705 26.6963C41.7304 26.7266 42.6923 26.6963 43.6542 26.7104C44.5169 26.7104 45.0373 27.0912 45.3188 27.9255C45.6226 28.8185 45.8818 29.7258 46.2099 30.6087C46.329 30.9122 46.5251 31.1795 46.7789 31.3843C47.435 31.9128 48.1337 32.3968 48.8141 32.8828C49.8125 33.6119 49.9765 34.1262 49.5897 35.3129C49.3163 36.1452 49.0328 36.9755 48.7797 37.8139C48.7148 38.0519 48.7148 38.3029 48.7797 38.5409C49.051 39.4602 49.3649 40.3634 49.6545 41.2828C49.9441 42.2022 49.7436 42.7976 48.9802 43.3585C48.2167 43.9194 47.4674 44.4318 46.7404 45.0069C46.5001 45.2026 46.3157 45.4583 46.2058 45.7481C45.8919 46.6006 45.6408 47.4755 45.3533 48.3402C45.0454 49.2737 44.5432 49.6362 43.555 49.6544C43.0771 49.6706 42.6052 49.6646 42.1314 49.6646ZM33.5492 43.8992L43.1824 34.27L41.0014 32.1032L31.3722 41.7324L33.5492 43.8992ZM39.9038 40.5842C39.6933 40.5799 39.484 40.6175 39.2882 40.6948C39.0923 40.7722 38.9138 40.8877 38.763 41.0347C38.6123 41.1817 38.4923 41.3572 38.41 41.5511C38.3277 41.7449 38.2848 41.9531 38.2838 42.1637C38.2805 42.3785 38.3201 42.5918 38.4 42.7911C38.48 42.9905 38.5988 43.172 38.7496 43.325C38.9003 43.478 39.08 43.5995 39.2782 43.6825C39.4763 43.7654 39.689 43.8081 39.9038 43.8081C40.3312 43.8008 40.739 43.6278 41.0413 43.3255C41.3435 43.0233 41.5166 42.6154 41.5239 42.188C41.5196 41.7612 41.347 41.3532 41.0437 41.0529C40.7403 40.7526 40.3307 40.5841 39.9038 40.5842ZM31.682 34.1667C31.6772 34.3773 31.7141 34.5868 31.7906 34.783C31.8671 34.9792 31.9817 35.1584 32.1278 35.3101C32.2739 35.4619 32.4486 35.5832 32.6418 35.6671C32.835 35.751 33.0429 35.7958 33.2535 35.7989C33.4646 35.8017 33.6743 35.7629 33.8704 35.6847C34.0666 35.6065 34.2454 35.4904 34.3967 35.343C34.548 35.1957 34.6687 35.02 34.7521 34.826C34.8355 34.632 34.8799 34.4234 34.8827 34.2123C34.8854 34.0011 34.8466 33.7915 34.7684 33.5954C34.6902 33.3992 34.5741 33.2204 34.4268 33.0691C34.2794 32.9178 34.1037 32.797 33.9097 32.7137C33.7157 32.6303 33.5072 32.5859 33.296 32.5831C33.0847 32.5774 32.8744 32.6142 32.6775 32.6913C32.4807 32.7684 32.3013 32.8842 32.1501 33.0319C31.9988 33.1796 31.8787 33.3561 31.7969 33.551C31.7151 33.746 31.6733 33.9553 31.6739 34.1667H31.682Z" fill="#487BDE" fill-opacity="0.2"/>
<path d="M4.68604 10.4349C5.49606 8.67314 6.7921 7.74566 8.57214 7.40747C16.1202 5.97103 23.6663 4.52918 31.2103 3.08194C34.7016 2.41569 38.1907 1.74134 41.686 1.08927C42.317 0.961065 42.9672 0.960472 43.5984 1.08754C44.2296 1.2146 44.829 1.46675 45.3612 1.82911C45.8935 2.19148 46.3477 2.65672 46.6973 3.19742C47.0469 3.73813 47.2847 4.34334 47.3967 4.97739C48.528 10.8163 49.6465 16.6573 50.7522 22.5003C51.06 24.1062 51.3597 25.712 51.6736 27.3159C52.028 29.1182 51.3273 30.5357 50.0839 31.8075C49.3245 31.2567 48.5854 30.7301 47.8564 30.1874C47.7375 30.0718 47.6533 29.9252 47.6134 29.7642C47.338 28.9542 47.1395 28.1036 46.7871 27.3341C46.5063 26.7682 46.1379 26.2502 45.6956 25.7991C45.5913 25.7076 45.5082 25.5944 45.4523 25.4674C45.3963 25.3404 45.3688 25.2028 45.3716 25.064C45.3797 21.909 45.3797 18.7539 45.3716 15.5989C45.3716 12.4884 43.3162 10.4349 40.2037 10.4349H4.68604Z" fill="#487BDE" fill-opacity="0.2"/>
<path d="M43.7515 20.1287H0.0849971C0.0667715 20.1105 0.0262684 20.0862 0.0262684 20.0598C0.0262684 18.373 -0.0344835 16.6841 0.0262684 14.9972C0.0930956 13.3954 1.49444 12.1175 3.09829 12.0527C3.26638 12.0527 3.43648 12.0527 3.60456 12.0527H40.157C42.4575 12.0527 43.7515 13.3528 43.7515 15.6655C43.7515 16.9817 43.7515 18.298 43.7515 19.6143V20.1287Z" fill="#487BDE" fill-opacity="0.2"/>
<path d="M22.9135 44.4559H3.57007C1.3425 44.4559 0.0100098 43.1335 0.0100098 40.9059C0.0100098 36.8922 0.0100098 32.8772 0.0100098 28.8608V28.2837H26.028C25.8458 28.8527 25.6797 29.4177 25.4772 29.9665C25.3959 30.1126 25.2771 30.2342 25.133 30.3189C24.4708 30.811 23.7964 31.2889 23.1322 31.781C22.5586 32.1789 22.1307 32.7533 21.9136 33.4167C21.6965 34.0802 21.702 34.7964 21.9293 35.4565C22.1521 36.1794 22.3708 36.9084 22.6361 37.6152C22.7857 37.9903 22.782 38.4092 22.6259 38.7816C22.4234 39.3324 22.2817 39.9096 22.0731 40.4604C21.5182 41.9225 21.6782 43.2287 22.9135 44.4559ZM4.89042 36.3171H14.5439V33.1418H4.89447L4.89042 36.3171Z" fill="#487BDE" fill-opacity="0.2"/>
</svg>
