<svg width="14" height="12" viewBox="0 0 14 12" fill="none" xmlns="http://www.w3.org/2000/svg">
<path d="M2.68693 0.00512573C2.94942 0.044282 3.19717 0.142216 3.40789 0.290166C3.43598 0.312356 3.46781 0.33455 3.49402 0.358447C4.08389 0.896124 4.67749 1.43209 5.26361 1.97318C5.47132 2.15142 5.60522 2.38952 5.64275 2.6473C5.68027 2.90507 5.61914 3.16676 5.46961 3.38821C5.33645 3.59092 5.12978 3.74488 4.88534 3.82348C4.7093 3.87346 4.54702 3.95718 4.40942 4.06906C4.27183 4.18094 4.16212 4.31836 4.08762 4.4721C3.98194 4.6869 3.964 4.92906 4.03705 5.15486C4.22604 5.74076 4.56124 6.27884 5.01642 6.72694C5.53418 7.28809 6.17115 7.74793 6.889 8.0788C7.18117 8.23757 7.51976 8.31084 7.85904 8.28875C8.07843 8.27371 8.28878 8.20288 8.46621 8.0843C8.64364 7.96572 8.78101 7.80415 8.86272 7.61794C8.95855 7.34941 9.15211 7.11875 9.41138 6.96418C9.63206 6.84107 9.8902 6.7856 10.148 6.80587C10.4058 6.82614 10.6496 6.9211 10.8439 7.07685C11.2053 7.37726 11.5424 7.69816 11.887 8.01394C12.2016 8.3007 12.5274 8.57892 12.8233 8.88275C12.9999 9.07854 13.1008 9.32199 13.1103 9.57535C13.1198 9.8287 13.0373 10.0778 12.8757 10.2841C12.8098 10.37 12.7359 10.4506 12.6547 10.5248C12.3083 10.844 11.9506 11.1547 11.6135 11.479C11.4443 11.6411 11.2411 11.7707 11.0159 11.8602C10.7908 11.9496 10.5483 11.997 10.3027 11.9996C9.76227 12.0068 9.22506 11.9223 8.71853 11.7504C7.722 11.4231 6.78427 10.9629 5.93589 10.3848C4.51359 9.45712 3.24638 8.34632 2.17384 7.0871C1.3591 6.17496 0.71845 5.1444 0.278755 4.03856C0.0803702 3.55543 -0.013732 3.04189 0.00161594 2.52622C0.00433859 2.30542 0.0554635 2.08736 0.151935 1.88481C0.248407 1.68226 0.38828 1.49933 0.563393 1.34676C0.876115 1.07706 1.18137 0.797127 1.47911 0.512073C1.71532 0.246204 2.04689 0.0648611 2.41541 0L2.68693 0.00512573Z" fill="#497BDF"/>
</svg>
