<svg width="37" height="37" viewBox="0 0 37 37" fill="none" xmlns="http://www.w3.org/2000/svg">
<circle cx="18.5" cy="18.5" r="18.5" fill="#4C9DD9"/>
<g clip-path="url(#clip0_2_2)">
<path d="M19.2549 22.5062C19.1009 22.5711 18.9531 22.6489 18.8131 22.7386C18.1708 23.2309 17.5376 23.7352 16.8999 24.2351C16.5601 24.5058 16.2384 24.413 16.107 24.0015C15.6614 22.6262 15.2178 21.2506 14.776 19.8745C14.7625 19.8127 14.7318 19.7555 14.6874 19.709C14.6429 19.6625 14.5863 19.6285 14.5234 19.6104C13.3907 19.2094 12.2579 18.802 11.1252 18.3879C11.0086 18.3486 10.905 18.28 10.825 18.1892C10.7878 18.1389 10.7632 18.081 10.7531 18.02C10.743 17.959 10.7477 17.8966 10.7668 17.8376C10.7859 17.7786 10.8188 17.7247 10.8631 17.68C10.9074 17.6354 10.9618 17.6012 11.0221 17.5802C11.2396 17.4863 11.4662 17.411 11.6893 17.328C16.4695 15.5511 21.2504 13.7741 26.032 11.9971C26.1314 11.9558 26.2388 11.9357 26.3469 11.9382C26.612 11.9611 26.7661 12.1969 26.7083 12.4676C26.5339 13.2847 26.3579 14.103 26.1804 14.9224C25.6027 17.5966 25.0258 20.2715 24.4496 22.9471C24.3057 23.6129 24.163 24.2798 24.0158 24.9446C23.9308 25.3255 23.6057 25.4467 23.2761 25.2174C22.0845 24.3857 20.8973 23.5507 19.7012 22.7234C19.5584 22.64 19.4092 22.5674 19.2549 22.5062V22.5062ZM15.5599 19.582C15.5658 19.6424 15.5764 19.7022 15.5916 19.761C15.8446 20.6218 16.0991 21.4827 16.3551 22.3435C16.3845 22.445 16.4332 22.5203 16.5556 22.5127C16.6779 22.5051 16.7232 22.4156 16.7379 22.3075C16.7912 21.9156 16.8512 21.5249 16.8965 21.1319C16.9352 20.7202 17.1382 20.3391 17.4629 20.0688C19.0193 18.6892 20.5654 17.2964 22.115 15.9091L23.1889 14.9475C23.2546 14.8885 23.3339 14.8274 23.2546 14.7292C23.1753 14.6309 23.0971 14.6964 23.0212 14.7434L22.9816 14.7663L17.5954 17.9622C17.0426 18.2897 16.491 18.6171 15.9371 18.9446C15.8213 19.0092 15.7255 19.1023 15.6592 19.2142C15.5929 19.3262 15.5587 19.4531 15.5599 19.582Z" fill="white"/>
</g>
<defs>
<clipPath id="clip0_2_2">
<rect width="15.9761" height="13.3971" fill="white" transform="translate(10.7419 11.9355)"/>
</clipPath>
</defs>
</svg>
