<svg width="37" height="37" viewBox="0 0 37 37" fill="none" xmlns="http://www.w3.org/2000/svg">
<circle cx="18.5" cy="18.5" r="18.5" fill="#47C53A"/>
<g clip-path="url(#clip0_1_697)">
<path d="M18.4257 26.8386C17.0297 26.8417 15.6525 26.5154 14.4063 25.8861C14.3435 25.8511 14.2738 25.8303 14.2021 25.8249C14.1303 25.8196 14.0583 25.83 13.991 25.8552C12.5425 26.3209 11.0923 26.7825 9.64035 27.2402C9.51678 27.2797 9.39321 27.3329 9.27822 27.2196C9.16323 27.1063 9.21643 26.9828 9.25762 26.8592C9.73016 25.4691 10.2033 24.0789 10.677 22.6888C10.7028 22.6247 10.7133 22.5555 10.7077 22.4867C10.702 22.4178 10.6803 22.3513 10.6443 22.2923C9.84998 20.9182 9.46584 19.3453 9.53737 17.7597C9.68668 14.5641 11.1592 12.1236 13.876 10.452C15.3639 9.54375 17.0941 9.11253 18.8342 9.21633C20.6159 9.29928 22.3315 9.91658 23.7576 10.9879C25.1836 12.0592 26.2543 13.535 26.8301 15.2231C27.45 17.0657 27.4412 19.0617 26.8051 20.8987C26.1691 22.7357 24.9417 24.3099 23.3153 25.3747C21.8627 26.3282 20.1634 26.837 18.4257 26.8386ZM11.9899 24.5577L12.1701 24.508C12.8411 24.2951 13.5156 24.0858 14.1849 23.8644C14.2634 23.8335 14.3483 23.8223 14.4321 23.8319C14.5159 23.8415 14.596 23.8715 14.6655 23.9193C15.5361 24.4753 16.5212 24.8273 17.547 24.949C18.8035 25.1041 20.0786 24.9178 21.2383 24.4099C22.3979 23.9019 23.3994 23.091 24.1374 22.0623C24.9473 20.9421 25.4011 19.6039 25.4397 18.2221C25.4782 16.8403 25.0998 15.4789 24.3536 14.3153C23.4293 12.8346 21.9794 11.7581 20.2947 11.3016C19.0079 10.9316 17.6409 10.9471 16.3628 11.3462C15.1157 11.716 13.9981 12.4298 13.138 13.4057C12.0983 14.5648 11.4814 16.0418 11.388 17.5962C11.2945 19.1505 11.7298 20.6908 12.6232 21.9662C12.6795 22.0381 12.7157 22.1237 12.7281 22.2141C12.7404 22.3046 12.7285 22.3967 12.6935 22.4811C12.4584 23.1642 12.2319 23.8438 11.9899 24.5577Z" fill="white"/>
<path d="M20.8264 22.2601C20.3236 22.2351 19.827 22.1375 19.3522 21.9701C17.3871 21.3797 15.9969 20.0668 14.8556 18.4295C14.4558 17.8545 14.1074 17.2573 13.9975 16.5553C13.872 15.8766 14.0121 15.1755 14.3888 14.5971C14.4794 14.448 14.5997 14.3192 14.7424 14.2188C14.885 14.1184 15.0469 14.0485 15.2178 14.0136C15.4426 13.9707 15.6674 13.9261 15.894 13.8952C16.017 13.8695 16.1451 13.8875 16.2563 13.9461C16.3675 14.0047 16.4548 14.1001 16.5032 14.2161C16.7778 14.8271 17.037 15.4449 17.291 16.0645C17.3991 16.3305 17.2584 16.5605 17.1194 16.7699C16.9924 16.9518 16.8327 17.1131 16.6972 17.2847C16.6646 17.3294 16.6405 17.4255 16.6646 17.4564C17.3751 18.4689 18.2332 19.3133 19.3882 19.8179C19.4123 19.8334 19.4392 19.8438 19.4675 19.8484C19.4957 19.853 19.5246 19.8517 19.5523 19.8446C19.58 19.8375 19.606 19.8248 19.6285 19.8072C19.6511 19.7896 19.6698 19.7675 19.6834 19.7424C19.867 19.5004 20.0661 19.267 20.2583 19.0284C20.4506 18.7899 20.6479 18.7126 20.9569 18.8311C21.1817 18.9152 21.3996 19.0216 21.6159 19.1245C21.9986 19.3065 22.3762 19.4953 22.7572 19.6806C22.843 19.7197 22.9155 19.7831 22.9656 19.8631C23.0156 19.943 23.041 20.036 23.0386 20.1303C23.1039 21.4569 22.0432 22.1348 21.0839 22.2361C21.0049 22.2532 20.9277 22.2549 20.8264 22.2601Z" fill="white"/>
</g>
<defs>
<clipPath id="clip0_1_697">
<rect width="18.0839" height="18.0822" fill="white" transform="translate(9.2074 9.20752)"/>
</clipPath>
</defs>
</svg>
