<svg width="11" height="15" viewBox="0 0 11 15" fill="none" xmlns="http://www.w3.org/2000/svg">
<g clip-path="url(#clip0_1_1179)">
<path d="M1.22558 1.22414C1.00561 1.22414 0.805693 1.23102 0.605776 1.22414C0.454822 1.22268 0.309759 1.16536 0.198584 1.06323C0.0874099 0.961106 0.0180063 0.821419 0.00376762 0.67113C-0.010471 0.520841 0.0314639 0.370607 0.121481 0.24942C0.211499 0.128233 0.343216 0.0446851 0.491211 0.0149032C0.542753 0.00523728 0.595169 0.00101329 0.647593 0.00230092C3.88292 0.00230092 7.11863 0.00230092 10.3547 0.00230092C10.6618 0.00230092 10.8932 0.167276 10.9739 0.436505C11.0159 0.562276 11.0136 0.698611 10.9675 0.822905C10.9213 0.947198 10.8341 1.05198 10.7202 1.11989C10.6024 1.18002 10.4735 1.21513 10.3415 1.223C10.1623 1.23961 9.98009 1.22701 9.77731 1.22701V1.38969C9.77731 1.98619 9.77731 2.5827 9.77731 3.1792C9.77731 4.25669 9.37003 5.15374 8.57438 5.87607C8.25627 6.16401 7.93701 6.45043 7.61661 6.73531C7.23511 7.07901 7.2311 7.5808 7.60916 7.92335C7.97004 8.25044 8.34066 8.56721 8.69123 8.90461C9.38665 9.57367 9.75383 10.394 9.7733 11.3638C9.78648 11.9984 9.77731 12.6331 9.77789 13.2678V13.4397C9.98754 13.4397 10.1823 13.4351 10.3765 13.4397C10.8113 13.4517 11.0965 13.8338 10.9734 14.2336C10.9371 14.3506 10.8665 14.4541 10.7707 14.5304C10.6748 14.6067 10.5582 14.6524 10.4361 14.6615C10.4028 14.6644 10.3696 14.6615 10.3358 14.6615H0.669361C0.362326 14.6615 0.143505 14.5246 0.0444064 14.2743C-0.115412 13.8693 0.172721 13.4517 0.625254 13.438C0.819442 13.4322 1.0142 13.438 1.22558 13.438V13.2661C1.22558 12.6696 1.22558 12.0731 1.22558 11.4766C1.22558 10.3985 1.63629 9.50321 2.43424 8.78432C2.74624 8.50287 3.05862 8.22218 3.37139 7.94226C3.77809 7.5768 3.77695 7.08302 3.36852 6.71412C3.01394 6.39448 2.65134 6.08401 2.30765 5.75234C1.62025 5.09015 1.25364 4.27617 1.23073 3.32012C1.21526 2.68542 1.22615 2.05073 1.22558 1.41604V1.22414ZM7.93396 13.4334C7.93739 13.4013 7.94197 13.3761 7.94197 13.3555C7.94197 12.7065 7.94541 12.0574 7.93567 11.4079C7.93519 11.0348 7.79001 10.6765 7.53068 10.4083C6.9676 9.82457 6.39133 9.25289 5.8122 8.68292C5.77132 8.64048 5.72223 8.60678 5.66792 8.58389C5.61362 8.561 5.55522 8.54939 5.49629 8.54977C5.43735 8.55014 5.37911 8.56249 5.3251 8.58607C5.27109 8.60965 5.22243 8.64397 5.18209 8.68693C4.6127 9.25174 4.04389 9.81655 3.48538 10.3922C3.21475 10.6692 3.06358 11.0413 3.06435 11.4285C3.0569 12.0729 3.06091 12.7173 3.06034 13.3618C3.06248 13.3857 3.0665 13.4095 3.07237 13.4328L7.93396 13.4334Z" fill="white"/>
</g>
<defs>
<clipPath id="clip0_1_1179">
<rect width="11" height="14.6649" fill="white" transform="translate(0.000244141)"/>
</clipPath>
</defs>
</svg>
